<?xml version="1.0" encoding="utf-8"?>
<!-- Generator: Adobe Illustrator 21.1.0, SVG Export Plug-In . SVG Version: 6.00 Build 0)  -->
<svg version="1.1" id="Layer_1" xmlns="http://www.w3.org/2000/svg" xmlns:xlink="http://www.w3.org/1999/xlink" x="0px" y="0px"
	 viewBox="0 0 600 280" style="enable-background:new 0 0 600 280;" xml:space="preserve">
<style type="text/css">
	.st0{fill:#273C82;}
	.st1{fill:#ACACAC;}
</style>
<rect x="80.5" y="2.6" class="st0" width="13.7" height="274.7"/>
<rect x="59" y="32.6" class="st0" width="9.6" height="214.9"/>
<rect x="40.8" y="64.8" class="st0" width="6.7" height="150.4"/>
<rect x="105.1" y="32.6" class="st0" width="9.6" height="214.9"/>
<rect x="127.2" y="64.8" class="st0" width="6.7" height="150.4"/>
<path class="st1" d="M137.5,108.1c16.5,3.4,27.1,8.3,27.1,13.5c0,9.4-33.8,17-75.5,17s-75.5-7.6-75.5-17c0-5.1,9.7-9.9,25.1-13.2
	C18.2,111.8,5,117.3,5,123.5C5,133.9,42.6,148,88.9,148c46.3,0,83.9-14.1,83.9-24.6C172.7,117.2,158.8,111.5,137.5,108.1"/>
<path class="st0" d="M338.4,201.8c-14.9,0.8-29.6,7.1-45.6,7.1c-42.6,0-80-22.5-80-69.7c0-42.2,32.6-68.1,73.3-68.1
	c14.3,0,22.5,1.1,36.3,5.2l5.7-2.5v22.7l-3.4-0.6c-3.8-11.6-16.8-18.7-37.2-18.7c-33.2,0-56.5,24.2-56.5,57.4
	c0,40.8,24.6,68.1,66,68.1c7.3,0,26.1-2.7,26.1-12.4v-18.7c0-7.3-1.3-8.2-8.8-8.6v-3.4c5.3,0.4,10.7,0.8,16,0.8
	c5.3,0,10.7-0.4,16-0.8v3.4c-5.5,0-8,1.9-8,8V201.8z"/>
<path class="st0" d="M422.3,76.8c-7.4,0-9.5,5.5-9.5,11.5l-1,103.4c0,5.9,3.1,11.5,8.8,11.5v3.4c-4,0-9.7-0.8-16.2-0.8
	c-5.7,0-11.5,0.8-15.3,0.8v-3.4c5.3,0,8.4-5.5,8.4-11.5l-1-103.4c0-5.9-2.1-11.5-9.5-11.5v-3.4c5.9,0,11.6,0.8,17.4,0.8
	c6.5,0,12.2-0.8,17.9-0.8V76.8z"/>
<path class="st0" d="M588.3,203.6c-12,3.4-28.2,5.3-40.7,5.3c-45.6,0-76-27.9-76-68.9c0-41,30.3-68.9,76-68.9
	c17.2,0,35.3,6.9,39.1,6.9c0.8,0,1.7-0.8,2.7-1l2.1,20.4h-3.4c-6.7-14.7-26.1-20.2-40.5-20.2c-34.2,0-57.8,22.5-57.8,62.8
	c0,28.8,26,62.8,57.8,62.8c22.7,0,35.7-5.7,44.9-19.8l2.5,1.3L588.3,203.6z"/>
</svg>
